<svg width="495" height="195" viewBox="0 0 495 195" fill="none" xmlns="http://www.w3.org/2000/svg">
  <style>
    .title { font: 700 22px Segoe UI, Arial, sans-serif; fill: #2563eb; }
    .text { font: 500 14px Segoe UI, Arial, sans-serif; fill: #475569; }
    .muted { font: 500 13px Segoe UI, Arial, sans-serif; fill: #64748b; }
    .num { font: 700 24px Segoe UI, Arial, sans-serif; fill: #0f172a; }
  </style>
  <rect width="495" height="195" rx="6" fill="#ffffff"/>
  <rect x="0.5" y="0.5" width="494" height="194" rx="5.5" stroke="#dbe3ef"/>
  <text x="24" y="38" class="title">Top Languages</text>
  <text x="24" y="68" class="muted">HTML</text>
  <rect x="145" y="58" width="235" height="10" rx="5" fill="#e2e8f0"/>
  <rect x="145" y="58" width="58" height="10" rx="5" fill="#e34c26"/>
  <text x="395" y="68" class="muted">24.9%</text>
  <text x="24" y="92" class="muted">CSS</text>
  <rect x="145" y="82" width="235" height="10" rx="5" fill="#e2e8f0"/>
  <rect x="145" y="82" width="55" height="10" rx="5" fill="#563d7c"/>
  <text x="395" y="92" class="muted">23.5%</text>
  <text x="24" y="116" class="muted">Python</text>
  <rect x="145" y="106" width="235" height="10" rx="5" fill="#e2e8f0"/>
  <rect x="145" y="106" width="54" height="10" rx="5" fill="#3572A5"/>
  <text x="395" y="116" class="muted">23.2%</text>
  <text x="24" y="140" class="muted">JavaScript</text>
  <rect x="145" y="130" width="235" height="10" rx="5" fill="#e2e8f0"/>
  <rect x="145" y="130" width="44" height="10" rx="5" fill="#f1e05a"/>
  <text x="395" y="140" class="muted">19.1%</text>
  <text x="24" y="164" class="muted">Rust</text>
  <rect x="145" y="154" width="235" height="10" rx="5" fill="#e2e8f0"/>
  <rect x="145" y="154" width="21" height="10" rx="5" fill="#64748b"/>
  <text x="395" y="164" class="muted">9.2%</text>
</svg>
